<?xml version="1.0" standalone="no"?>
<!DOCTYPE svg PUBLIC "-//W3C//DTD SVG 20010904//EN"
 "http://www.w3.org/TR/2001/REC-SVG-20010904/DTD/svg10.dtd">
<svg version="1.0" xmlns="http://www.w3.org/2000/svg"
 width="640.000000pt" height="858.000000pt" viewBox="0 0 640.000000 858.000000"
 preserveAspectRatio="xMidYMid meet">
<metadata>
Created by potrace 1.16, written by Peter Selinger 2001-2019
</metadata>
<g transform="translate(0.000000,858.000000) scale(0.100000,-0.100000)"
fill="#000000" stroke="none">
<path d="M2990 8363 c-103 -10 -171 -27 -233 -59 -142 -73 -229 -161 -297
-300 -33 -69 -39 -71 -133 -41 -110 36 -207 51 -281 44 -96 -10 -206 -42 -271
-80 -63 -37 -195 -151 -195 -169 0 -6 -14 -26 -30 -45 -17 -18 -30 -38 -30
-44 0 -6 -14 -42 -31 -81 -29 -66 -31 -79 -36 -235 -5 -121 -10 -166 -19 -170
-7 -3 -43 7 -79 22 -117 46 -351 44 -444 -4 -20 -11 -56 -29 -81 -40 -53 -25
-159 -113 -194 -161 -49 -69 -104 -176 -117 -230 -12 -46 -14 -314 -14 -1595
0 -1618 4 -1806 46 -2181 11 -98 27 -244 34 -324 8 -80 22 -176 30 -215 8 -38
22 -120 30 -182 9 -61 24 -144 34 -185 11 -40 27 -116 36 -168 9 -52 22 -104
28 -115 6 -11 19 -54 28 -95 29 -127 133 -406 165 -441 7 -8 14 -20 14 -25 0
-12 77 -131 115 -176 75 -92 116 -135 180 -189 39 -32 78 -65 88 -74 10 -9 34
-25 55 -36 20 -12 44 -26 52 -33 49 -39 264 -130 370 -156 41 -11 109 -28 150
-38 41 -11 134 -25 205 -31 72 -7 157 -16 190 -21 82 -12 604 -12 690 0 39 5
128 17 198 25 70 9 151 24 180 35 29 11 83 26 121 35 37 9 78 22 90 30 12 8
43 21 68 29 26 7 59 23 75 33 15 11 45 26 65 32 20 7 42 19 50 28 7 9 29 23
48 32 42 19 66 37 198 148 130 110 182 165 325 348 27 34 91 129 132 195 15
25 41 64 56 88 16 23 36 57 44 75 8 17 31 59 50 92 19 33 45 83 59 110 22 45
57 110 134 245 48 86 91 165 111 206 11 22 29 51 39 65 11 13 29 44 41 69 30
61 66 126 88 158 9 15 28 47 41 72 28 55 78 148 117 215 40 71 90 162 121 220
14 28 43 82 64 120 21 39 46 86 54 105 9 19 23 46 31 60 8 14 28 52 44 85 17
33 35 67 40 75 6 8 19 35 31 60 11 25 28 59 37 75 8 17 23 44 31 60 8 17 31
59 50 95 18 36 40 79 48 95 8 17 21 41 29 55 8 14 21 41 30 60 8 19 24 51 35
70 45 79 132 264 147 313 12 37 16 89 16 177 -1 118 -3 131 -37 224 -20 54
-47 112 -59 127 -76 100 -117 141 -214 215 -16 12 -57 34 -93 49 -217 91 -454
68 -649 -64 -97 -66 -201 -193 -246 -301 -9 -19 -21 -46 -29 -60 -8 -14 -41
-77 -73 -140 -33 -63 -65 -124 -71 -135 -6 -11 -18 -37 -26 -57 -11 -27 -21
-38 -35 -38 -12 0 -22 1 -23 3 -2 1 -5 607 -8 1347 l-5 1345 -36 85 c-43 102
-80 158 -151 229 -72 72 -137 114 -238 151 -141 52 -295 52 -416 -1 -37 -17
-51 -19 -70 -10 -13 6 -24 14 -24 18 -7 212 -10 246 -33 331 -13 50 -36 109
-50 130 -13 20 -26 42 -28 47 -9 25 -76 103 -112 130 -21 17 -47 37 -57 46
-80 73 -273 125 -410 112z m135 -337 c91 -36 175 -113 196 -181 11 -32 14
-376 19 -1640 l5 -1600 27 -39 c38 -55 74 -76 131 -76 84 0 134 39 165 127 8
23 11 373 12 1215 0 812 4 1194 11 1222 19 71 107 170 161 181 18 4 38 11 44
17 29 23 108 20 184 -6 103 -36 152 -88 192 -201 16 -47 17 -147 18 -1623 0
-1091 -3 -1579 -11 -1593 -15 -28 -36 -34 -230 -64 -167 -26 -302 -61 -419
-110 -30 -13 -65 -26 -77 -30 -42 -12 -224 -115 -303 -171 -92 -66 -268 -228
-306 -284 -13 -19 -40 -55 -59 -80 -38 -49 -62 -90 -131 -220 -72 -136 -92
-250 -56 -317 23 -43 84 -83 127 -83 78 0 167 74 182 152 3 18 21 62 39 97 19
35 34 69 34 76 0 7 9 20 21 31 12 10 28 32 37 49 26 51 138 175 223 247 44 37
84 68 89 68 4 0 27 16 50 35 23 19 48 35 56 35 7 0 35 14 61 30 26 17 54 30
62 30 9 0 43 14 76 30 33 17 66 30 74 30 8 0 62 13 120 30 105 29 286 50 440
50 75 0 149 29 190 74 14 14 50 77 81 139 32 61 88 171 125 242 37 72 94 182
126 245 33 63 64 122 69 130 5 8 18 35 29 60 11 25 25 52 30 60 6 8 19 33 30
55 144 299 196 371 305 424 170 82 369 2 454 -183 43 -93 44 -160 2 -259 -17
-40 -36 -81 -42 -92 -16 -27 -77 -143 -94 -180 -8 -16 -22 -43 -31 -60 -19
-36 -269 -521 -348 -675 -15 -30 -33 -62 -40 -70 -7 -8 -20 -36 -30 -62 -10
-27 -21 -48 -25 -48 -4 0 -20 -26 -34 -57 -15 -32 -43 -85 -61 -118 -34 -60
-64 -116 -114 -211 -14 -28 -32 -59 -40 -68 -8 -9 -25 -38 -38 -64 -13 -26
-39 -74 -58 -107 -18 -33 -46 -83 -62 -112 -50 -91 -157 -284 -190 -342 -17
-31 -44 -78 -58 -106 -15 -27 -42 -77 -61 -110 -19 -33 -43 -79 -54 -102 -10
-24 -28 -55 -38 -70 -11 -16 -40 -64 -65 -108 -48 -84 -72 -120 -122 -185 -16
-22 -46 -60 -65 -86 -58 -78 -147 -173 -236 -251 -62 -53 -110 -87 -192 -133
-15 -8 -43 -25 -62 -37 -41 -25 -204 -93 -224 -93 -7 0 -58 -13 -112 -29 -78
-24 -140 -33 -289 -45 -238 -20 -378 -20 -675 -1 -192 13 -259 21 -365 46 -71
17 -148 38 -170 46 -156 59 -189 76 -306 155 -68 46 -163 140 -213 211 -61 86
-106 160 -106 176 0 8 -11 33 -24 56 -14 23 -30 64 -37 91 -7 27 -21 66 -31
87 -11 21 -26 73 -34 115 -8 43 -21 95 -30 117 -9 22 -24 87 -34 145 -10 58
-26 132 -34 165 -9 33 -20 106 -26 163 -6 56 -20 144 -30 195 -11 50 -25 157
-30 237 -6 80 -20 219 -31 310 -11 91 -24 278 -29 415 -13 337 -13 3090 0
3134 19 67 80 140 152 182 61 36 72 39 142 39 65 0 84 -4 135 -31 70 -37 110
-75 148 -144 l28 -50 5 -1052 5 -1053 42 -42 c39 -39 47 -42 105 -46 60 -4 66
-2 105 29 22 19 47 43 54 54 12 17 15 263 19 1450 l5 1430 29 53 c33 60 103
127 155 149 41 17 193 20 234 4 46 -18 107 -72 145 -130 35 -53 36 -57 43
-184 4 -72 7 -666 7 -1321 1 -655 1 -1246 1 -1312 l1 -121 44 -46 c24 -25 56
-49 70 -53 44 -11 111 2 144 26 66 49 62 -56 65 1680 3 1539 4 1576 23 1632
32 90 113 167 209 195 52 15 132 15 170 -1z"/>
</g>
</svg>
