<?xml version="1.0" standalone="no"?>
<!DOCTYPE svg PUBLIC "-//W3C//DTD SVG 20010904//EN"
 "http://www.w3.org/TR/2001/REC-SVG-20010904/DTD/svg10.dtd">
<svg version="1.0" xmlns="http://www.w3.org/2000/svg"
 width="660.000000pt" height="864.000000pt" viewBox="0 0 660.000000 864.000000"
 preserveAspectRatio="xMidYMid meet">
<metadata>
Created by potrace 1.16, written by Peter Selinger 2001-2019
</metadata>
<g transform="translate(0.000000,864.000000) scale(0.100000,-0.100000)"
fill="#000000" stroke="none">
<path d="M3395 6725 c-92 -23 -196 -71 -253 -115 -48 -37 -118 -104 -128 -122
-5 -9 -27 -30 -48 -47 -39 -31 -39 -31 -60 -12 -36 34 -127 91 -155 98 -14 3
-48 17 -76 31 -46 23 -63 26 -200 29 -159 5 -195 -1 -305 -49 -30 -13 -73 -36
-95 -51 -22 -15 -45 -27 -51 -27 -6 0 -50 -40 -98 -90 -50 -52 -96 -90 -107
-90 -10 0 -29 10 -41 23 -30 29 -122 85 -173 104 -141 52 -154 55 -300 50
-123 -3 -148 -7 -210 -31 -113 -44 -181 -83 -244 -138 -44 -38 -131 -140 -131
-152 0 -6 -11 -26 -24 -45 -14 -20 -40 -74 -58 -121 l-33 -85 -1 -765 c-1
-808 4 -1011 30 -1335 9 -110 24 -283 32 -385 8 -102 19 -203 24 -225 5 -22
16 -112 25 -200 9 -88 25 -203 35 -255 11 -52 24 -135 30 -185 6 -49 22 -133
35 -185 12 -52 26 -120 29 -150 4 -30 16 -81 27 -112 11 -32 26 -89 34 -126 8
-37 26 -100 40 -139 14 -40 25 -80 25 -89 0 -9 13 -43 28 -77 16 -34 32 -78
36 -98 3 -21 15 -48 25 -60 10 -13 24 -42 31 -64 7 -22 21 -51 32 -64 10 -14
27 -43 38 -65 60 -123 276 -369 386 -438 22 -14 45 -33 53 -42 7 -9 19 -16 26
-16 7 0 19 -7 26 -17 8 -9 34 -26 59 -37 25 -12 59 -31 77 -43 17 -13 36 -23
43 -23 6 0 44 -16 83 -35 39 -19 78 -35 88 -35 9 0 41 -11 71 -24 30 -13 77
-27 104 -31 27 -4 90 -18 139 -31 54 -15 156 -30 255 -39 91 -8 201 -19 245
-25 107 -14 674 -15 750 -1 33 6 128 17 210 25 88 9 175 24 209 36 32 11 89
25 125 31 36 6 89 21 116 34 28 12 64 25 80 29 29 6 133 52 185 82 14 7 45 23
70 35 25 12 59 33 76 45 17 13 34 24 37 24 4 0 28 16 54 35 27 19 65 47 86 62
79 58 239 212 320 308 37 44 77 91 88 105 28 33 128 180 159 235 14 24 33 51
42 62 9 10 23 34 32 53 9 19 34 67 56 105 22 39 47 86 55 105 9 19 20 42 25
50 6 8 20 35 31 60 11 25 33 70 49 101 17 31 30 63 30 70 0 8 11 31 24 50 14
20 28 49 32 65 4 16 20 55 35 86 16 32 29 63 29 69 0 7 13 39 29 73 17 34 36
81 45 106 35 106 60 178 77 215 10 23 26 70 34 105 9 36 25 90 35 120 11 30
24 82 30 115 7 33 20 89 31 125 10 36 30 159 45 274 21 169 25 237 21 355 -5
165 -36 380 -66 461 -11 30 -26 78 -32 105 -11 46 -81 202 -111 250 -80 126
-115 171 -192 250 -50 50 -109 103 -131 117 -22 14 -46 33 -54 42 -7 9 -18 16
-24 16 -17 0 -116 70 -127 90 -6 11 -10 152 -10 367 0 325 -2 355 -24 459 -12
62 -32 124 -43 140 -11 16 -25 44 -31 62 -6 18 -22 45 -36 60 -72 79 -96 107
-96 114 0 4 -6 8 -13 8 -8 0 -24 11 -37 25 -36 38 -125 86 -230 123 -86 30
-106 33 -211 34 -102 0 -127 -4 -210 -30 -92 -30 -190 -81 -234 -122 -12 -12
-39 -23 -59 -27 -35 -5 -40 -3 -94 53 -62 64 -150 134 -168 134 -6 0 -28 12
-49 26 -21 14 -68 32 -104 40 -36 8 -84 18 -106 24 -67 16 -184 10 -280 -15z
m266 -319 c110 -24 196 -89 257 -196 l37 -65 3 -225 c4 -262 1 -271 -64 -252
-21 6 -57 17 -80 26 -139 51 -380 67 -494 32 -95 -30 -106 -30 -130 -6 -22 22
-23 26 -17 194 6 197 22 265 82 346 50 69 140 128 218 145 81 17 108 18 188 1z
m1179 -125 c69 -26 155 -101 197 -172 24 -40 34 -74 42 -134 11 -84 13 -586 2
-603 -19 -29 -47 -30 -122 -5 -83 28 -214 65 -334 95 -44 11 -102 28 -130 39
-27 10 -66 21 -85 25 -60 10 -91 26 -101 51 -13 34 -11 347 2 418 26 139 123
250 260 294 81 26 189 23 269 -8z m-2248 -48 c90 -37 149 -89 200 -176 l43
-72 3 -331 3 -332 -28 -78 c-26 -72 -28 -91 -28 -219 0 -125 3 -147 25 -205
23 -59 25 -79 25 -210 0 -141 -1 -147 -30 -205 -39 -78 -114 -150 -195 -188
-58 -28 -75 -31 -160 -32 -87 0 -101 3 -162 32 -74 36 -170 123 -191 176 -8
17 -21 64 -31 102 -15 63 -16 138 -14 755 3 678 3 686 25 750 32 94 131 197
223 233 36 14 74 28 85 31 42 11 142 -4 207 -31z m-1140 -125 c53 -17 82 -35
133 -81 36 -33 72 -73 81 -91 8 -17 22 -44 32 -61 15 -27 17 -79 17 -590 l0
-560 -38 -67 c-54 -95 -131 -161 -227 -193 -94 -32 -155 -32 -249 0 -149 51
-227 146 -272 331 -6 26 -9 224 -7 520 l3 479 28 67 c27 68 91 168 108 168 4
0 23 13 41 29 19 16 64 38 108 51 41 12 80 24 85 26 18 6 89 -6 157 -28z
m2251 -727 c40 -15 94 -31 122 -36 27 -4 77 -17 110 -30 33 -12 83 -25 110
-30 28 -4 76 -17 107 -30 31 -13 76 -26 100 -30 24 -3 82 -20 130 -36 47 -16
95 -29 106 -29 10 0 57 -13 103 -29 46 -16 103 -32 127 -36 24 -4 70 -18 103
-31 32 -13 68 -24 80 -24 11 0 61 -13 110 -30 50 -16 109 -33 132 -36 40 -6
160 -51 203 -77 11 -6 36 -21 55 -32 50 -30 199 -181 244 -250 53 -79 86 -158
141 -330 l29 -90 -1 -320 c0 -310 -1 -323 -26 -425 -14 -58 -29 -132 -33 -165
-4 -33 -16 -82 -27 -110 -10 -27 -25 -83 -33 -123 -8 -40 -23 -89 -34 -110
-11 -21 -23 -56 -27 -77 -4 -22 -19 -65 -34 -95 -15 -30 -31 -71 -35 -90 -4
-19 -18 -53 -31 -76 -13 -22 -24 -47 -24 -55 0 -9 -16 -46 -35 -85 -19 -38
-35 -73 -35 -79 1 -9 -28 -70 -78 -170 -8 -16 -20 -41 -26 -54 -18 -38 -101
-201 -134 -261 -69 -127 -86 -156 -102 -175 -10 -11 -25 -33 -34 -50 -81 -144
-309 -396 -461 -510 -87 -65 -102 -75 -155 -105 -30 -17 -66 -37 -80 -45 -49
-27 -151 -75 -161 -75 -6 0 -43 -13 -82 -29 -40 -15 -92 -31 -118 -35 -25 -4
-74 -15 -110 -26 -115 -35 -345 -54 -679 -54 -355 0 -640 16 -755 45 -44 10
-120 28 -170 38 -182 38 -355 116 -541 242 -57 39 -183 166 -231 235 -69 96
-111 162 -118 187 -4 12 -18 41 -31 64 -13 23 -24 48 -24 55 0 7 -13 41 -29
75 -17 34 -34 86 -40 115 -5 29 -19 74 -30 100 -11 26 -25 76 -31 110 -6 35
-20 89 -31 121 -11 32 -24 93 -30 135 -6 42 -20 113 -31 157 -11 44 -26 130
-33 190 -7 61 -22 153 -33 205 -11 52 -26 165 -32 250 -7 85 -13 157 -15 160
-11 18 -36 266 -45 440 -5 113 -13 257 -16 320 -6 108 -5 116 14 134 20 18 23
17 97 -13 157 -63 327 -67 490 -12 50 17 101 39 115 50 14 10 40 25 58 35 29
15 35 15 62 1 16 -8 38 -32 49 -53 26 -50 134 -160 207 -209 32 -22 102 -57
154 -78 95 -38 96 -38 240 -38 124 -1 154 2 207 21 134 47 226 99 298 170 66
64 94 71 137 33 122 -109 212 -153 373 -181 101 -19 128 -20 176 -11 107 21
126 2 95 -98 -8 -25 -30 -107 -48 -181 l-33 -135 1 -260 c1 -241 2 -265 23
-330 13 -38 29 -95 38 -125 8 -30 26 -73 39 -96 13 -22 24 -48 24 -56 0 -8 14
-32 30 -53 17 -21 30 -43 30 -49 0 -6 16 -31 35 -55 19 -24 35 -47 35 -50 0
-6 125 -135 175 -181 16 -14 55 -42 89 -62 67 -41 117 -49 164 -24 53 27 102
101 102 152 0 34 -55 131 -79 139 -24 7 -201 187 -219 222 -8 15 -19 30 -23
33 -5 3 -19 31 -33 62 -14 31 -29 59 -35 62 -14 9 -69 249 -75 331 -17 206 39
475 170 824 30 81 63 111 121 111 55 0 121 39 148 88 30 54 31 90 5 142 -24
47 -112 110 -153 110 -16 0 -68 13 -116 29 -48 16 -105 32 -127 36 -21 4 -78
20 -126 36 -47 16 -98 29 -111 29 -14 0 -62 14 -107 30 -45 17 -93 30 -108 30
-39 1 -250 75 -275 97 -12 11 -34 27 -49 36 -16 10 -28 24 -28 32 0 8 -8 19
-18 24 -19 10 -37 47 -66 136 -37 114 -5 257 78 352 59 66 145 123 205 134 84
15 215 2 294 -30z"/>
</g>
</svg>
