<?xml version="1.0" standalone="no"?>
<!DOCTYPE svg PUBLIC "-//W3C//DTD SVG 20010904//EN"
 "http://www.w3.org/TR/2001/REC-SVG-20010904/DTD/svg10.dtd">
<svg version="1.0" xmlns="http://www.w3.org/2000/svg"
 width="618.000000pt" height="854.000000pt" viewBox="0 0 618.000000 854.000000"
 preserveAspectRatio="xMidYMid meet">
<metadata>
Created by potrace 1.16, written by Peter Selinger 2001-2019
</metadata>
<g transform="translate(0.000000,854.000000) scale(0.100000,-0.100000)"
fill="#000000" stroke="none">
<path d="M2860 8190 c-74 -17 -157 -57 -235 -114 -35 -26 -54 -47 -129 -138
-34 -43 -84 -154 -95 -213 -6 -32 -11 -102 -11 -154 0 -102 33 -476 49 -557 6
-27 17 -137 26 -244 9 -107 23 -237 30 -288 8 -51 21 -175 30 -275 9 -100 25
-243 35 -318 35 -242 30 -256 -79 -221 -73 24 -241 30 -311 13 -71 -19 -186
-64 -206 -82 -11 -11 -24 -19 -28 -19 -14 0 -130 -101 -151 -131 -25 -37 -61
-47 -94 -26 -169 103 -257 136 -387 144 -51 3 -118 1 -155 -6 -64 -11 -200
-61 -229 -84 -8 -7 -28 -19 -43 -27 -30 -15 -133 -115 -177 -172 -45 -58 -91
-162 -107 -238 -11 -58 -15 -173 -17 -515 -2 -242 0 -489 5 -550 4 -60 13
-216 19 -345 6 -129 18 -287 26 -350 8 -63 21 -196 29 -295 9 -99 25 -223 35
-276 11 -53 24 -141 30 -195 6 -55 19 -135 30 -179 11 -44 26 -123 34 -175 9
-53 24 -125 35 -160 11 -36 25 -93 31 -127 6 -34 18 -79 27 -100 9 -21 24 -69
34 -108 19 -76 56 -174 93 -245 13 -25 26 -58 30 -74 4 -16 16 -41 27 -54 11
-14 28 -44 39 -66 11 -23 32 -57 47 -77 74 -96 91 -117 128 -158 61 -68 106
-109 153 -142 23 -17 42 -34 42 -39 0 -5 10 -12 23 -16 12 -4 37 -20 55 -35
18 -16 39 -29 46 -29 7 0 30 -13 51 -30 21 -16 43 -30 50 -30 7 0 38 -13 68
-29 30 -16 70 -32 89 -36 18 -4 51 -16 72 -27 22 -11 78 -28 125 -39 47 -10
111 -25 141 -34 50 -14 150 -26 455 -55 55 -6 217 -10 360 -11 206 -1 293 3
420 19 88 11 186 23 218 27 32 4 88 17 125 30 37 12 89 26 117 30 27 4 71 18
97 31 26 13 53 24 61 24 7 0 44 16 83 35 38 19 73 35 78 35 6 0 26 11 45 24
42 27 122 75 160 95 14 8 30 20 34 28 4 7 22 20 40 30 18 9 45 28 61 42 129
117 191 180 267 271 48 58 97 115 108 128 11 12 27 35 35 50 8 15 23 36 35 46
12 11 21 25 21 32 0 7 14 29 30 47 17 19 30 39 30 44 0 5 16 32 35 59 19 27
35 53 35 59 0 5 14 28 30 49 17 22 30 45 30 51 0 7 13 32 30 56 16 24 30 50
30 58 0 8 13 35 29 60 16 25 34 63 40 83 7 20 18 42 26 48 8 6 22 35 31 63 9
29 25 62 35 75 10 13 21 37 25 55 3 18 20 56 35 86 16 30 29 61 29 69 0 9 13
45 29 81 34 77 66 172 88 256 8 33 26 101 40 150 43 156 79 508 63 628 -28
218 -42 293 -65 347 -14 33 -25 65 -25 72 0 7 -7 27 -16 43 -9 17 -29 56 -45
87 -16 31 -34 60 -39 63 -6 4 -19 23 -29 43 -11 20 -43 63 -73 94 -29 32 -58
64 -65 70 -32 36 -171 148 -183 148 -4 0 -24 14 -45 30 -21 17 -45 30 -54 30
-9 0 -36 14 -61 30 -25 16 -52 30 -60 30 -8 0 -43 13 -76 30 -33 16 -73 34
-87 39 -33 13 -35 44 -12 176 9 49 22 176 30 282 8 107 24 247 34 311 11 64
25 189 30 277 6 88 20 214 30 280 11 66 25 192 31 280 6 88 17 205 25 260 18
118 30 230 45 420 7 77 18 170 25 206 21 97 38 367 33 494 -5 104 -7 114 -47
195 -53 108 -77 142 -154 213 -128 119 -282 174 -457 163 -217 -14 -312 -65
-494 -266 -13 -14 -26 -36 -31 -50 -4 -14 -18 -44 -31 -66 -18 -32 -30 -86
-53 -240 -16 -110 -32 -246 -35 -304 -17 -269 -52 -264 -81 10 -9 74 -20 167
-25 205 -5 39 -15 112 -20 164 -18 162 -109 319 -244 424 -143 110 -353 152
-546 107z m266 -325 c78 -32 129 -81 167 -157 33 -67 36 -83 42 -188 3 -63 17
-185 30 -270 13 -85 28 -227 34 -316 6 -88 20 -214 30 -280 11 -65 25 -193 31
-284 6 -91 19 -219 30 -285 11 -67 26 -208 34 -315 8 -107 19 -217 25 -245 5
-27 15 -93 22 -145 12 -92 14 -96 54 -137 41 -42 44 -43 109 -43 62 0 68 2
106 36 43 39 55 70 65 169 3 33 13 107 20 165 8 58 22 188 30 290 9 102 22
228 30 280 8 52 24 199 35 325 11 127 23 236 25 243 7 20 23 168 35 317 6 77
17 185 26 240 8 55 21 167 30 248 19 188 42 241 136 310 59 43 102 56 181 57
76 0 119 -15 180 -62 50 -39 57 -47 94 -113 25 -46 28 -58 27 -150 -1 -55 -8
-147 -17 -205 -9 -58 -23 -184 -32 -280 -9 -96 -21 -204 -25 -240 -5 -36 -23
-202 -40 -368 -16 -167 -32 -307 -35 -312 -3 -4 -14 -113 -25 -241 -11 -129
-24 -254 -29 -279 -6 -25 -17 -126 -26 -225 -21 -241 -36 -378 -42 -388 -2 -4
-10 -64 -18 -133 -16 -161 -20 -165 -110 -136 -36 12 -74 22 -85 22 -11 0 -57
13 -103 28 -45 16 -105 32 -133 36 -28 3 -78 17 -110 30 -33 13 -83 26 -112
30 -29 4 -83 18 -120 31 -37 13 -85 27 -107 30 -22 4 -78 18 -124 31 -130 37
-260 31 -377 -17 -26 -10 -37 -10 -63 0 -28 12 -31 17 -31 60 0 25 -5 64 -10
86 -5 22 -15 96 -21 165 -5 69 -19 181 -29 250 -11 69 -24 197 -30 285 -6 88
-15 183 -20 210 -18 101 -39 283 -45 395 -3 63 -15 169 -25 235 -11 66 -26
210 -35 320 -8 110 -22 238 -30 285 -24 131 -37 330 -26 379 21 93 108 193
201 230 39 15 166 13 206 -4z m-704 -2526 c58 -18 81 -31 123 -73 28 -28 65
-73 81 -101 l29 -50 3 -251 c4 -250 4 -252 -24 -350 -38 -134 -39 -265 -4
-374 23 -69 25 -91 25 -260 0 -178 -1 -187 -25 -234 -32 -64 -105 -137 -167
-167 -56 -27 -193 -38 -259 -20 -69 18 -146 77 -192 144 -36 53 -43 74 -53
142 -16 120 -8 1340 9 1379 46 104 119 176 216 211 79 29 151 30 238 4z
m-1049 -122 c37 -13 81 -35 98 -50 17 -15 35 -27 39 -27 4 0 17 -15 29 -32 11
-18 27 -42 36 -53 29 -41 35 -130 36 -594 2 -566 2 -567 -103 -672 -65 -65
-117 -88 -215 -95 -150 -12 -261 44 -339 169 l-39 62 -3 510 c-2 281 0 524 3
541 7 41 74 141 124 184 44 39 158 78 226 79 22 0 70 -10 108 -22z m2041 -558
c50 -12 118 -30 151 -41 33 -11 83 -25 110 -30 28 -6 93 -23 145 -39 52 -15
122 -34 155 -42 58 -15 126 -33 415 -111 74 -20 178 -47 230 -60 171 -42 245
-68 335 -119 160 -89 317 -267 377 -427 11 -30 26 -71 33 -91 45 -119 38 -565
-11 -719 -13 -41 -26 -95 -30 -120 -4 -25 -20 -77 -36 -117 -15 -39 -28 -80
-28 -90 0 -10 -10 -38 -21 -63 -12 -25 -32 -72 -44 -105 -44 -117 -85 -207
-176 -388 -119 -236 -125 -247 -222 -399 -21 -31 -37 -61 -37 -66 0 -5 -9 -17
-21 -28 -12 -10 -28 -32 -36 -49 -9 -16 -28 -44 -42 -61 -14 -17 -39 -48 -56
-69 -16 -22 -86 -96 -155 -165 -247 -249 -533 -394 -895 -454 -140 -23 -485
-40 -689 -32 -195 7 -530 31 -543 39 -5 3 -62 17 -128 32 -167 37 -307 94
-462 188 -199 122 -369 342 -460 596 -56 155 -100 303 -119 396 -8 44 -24 109
-34 145 -10 36 -22 92 -25 125 -4 33 -17 105 -30 160 -13 55 -26 138 -30 185
-3 47 -15 130 -26 185 -18 88 -49 424 -49 527 0 57 21 63 111 31 110 -39 247
-39 384 1 56 16 116 41 139 57 26 20 51 29 76 29 33 0 39 -4 51 -32 14 -35
192 -218 212 -218 7 0 29 -12 50 -26 54 -36 237 -86 317 -86 130 0 346 74 423
143 84 76 177 182 177 202 0 5 13 31 29 56 16 25 32 66 35 90 11 70 22 84 64
78 50 -7 212 -51 237 -64 11 -6 51 -16 90 -23 56 -11 76 -20 107 -49 33 -31
40 -46 53 -111 9 -41 27 -100 40 -131 14 -31 25 -62 25 -70 0 -12 54 -132 87
-194 9 -16 27 -50 40 -75 40 -75 107 -168 193 -269 100 -116 199 -204 336
-297 67 -45 91 -56 136 -61 76 -8 120 9 157 59 39 53 47 94 28 141 -19 44 -76
101 -128 127 -21 11 -42 26 -46 33 -4 8 -17 19 -29 25 -64 33 -186 159 -302
312 -46 59 -172 321 -172 356 0 44 28 61 68 40 60 -31 339 -45 502 -26 76 9
185 46 240 81 59 37 82 55 133 106 70 70 94 131 76 197 -22 84 -65 117 -155
118 -59 1 -77 -8 -142 -71 -61 -60 -166 -108 -255 -116 -84 -8 -269 10 -307
30 -14 7 -55 19 -90 25 -36 6 -90 20 -120 31 -30 11 -87 26 -127 34 -39 7 -85
21 -102 30 -17 8 -68 22 -113 31 -45 9 -98 22 -118 30 -19 9 -66 22 -105 30
-216 46 -341 200 -322 397 9 86 24 132 52 163 14 15 25 30 25 33 0 19 101 87
159 107 83 29 121 29 235 3z"/>
</g>
</svg>
